<?xml version="1.0" standalone="no"?>
<!DOCTYPE svg PUBLIC "-//W3C//DTD SVG 20010904//EN"
 "http://www.w3.org/TR/2001/REC-SVG-20010904/DTD/svg10.dtd">
<svg version="1.0" xmlns="http://www.w3.org/2000/svg"
 width="259.000000pt" height="259.000000pt" viewBox="0 0 259.000000 259.000000"
 preserveAspectRatio="xMidYMid meet">
<metadata>
Created by potrace 1.16, written by Peter Selinger 2001-2019
</metadata>
<g transform="translate(0.000000,259.000000) scale(0.100000,-0.100000)"
fill="#000000" stroke="none">
<path d="M1015 2535 c-253 -46 -489 -175 -666 -363 -168 -178 -282 -409 -325
-652 -23 -135 -15 -430 15 -550 119 -468 469 -818 926 -926 87 -21 313 -29
423 -15 281 35 571 197 760 426 126 152 205 309 259 513 34 131 44 398 19 542
-19 110 -71 271 -117 362 -101 203 -294 414 -464 507 -22 12 -51 28 -65 36
-99 56 -252 107 -377 125 -93 13 -303 11 -388 -5z m410 -30 c113 -21 234 -61
325 -107 527 -270 790 -869 634 -1447 -120 -443 -482 -787 -929 -883 -93 -19
-381 -16 -483 6 -45 9 -95 24 -110 32 -15 7 -33 14 -40 14 -20 0 -159 66 -217
103 -201 128 -375 324 -470 530 -154 335 -154 726 0 1064 106 232 315 452 542
570 102 52 257 106 353 121 83 14 316 12 395 -3z"/>
<path d="M1114 2390 c-236 -24 -431 -123 -614 -310 -360 -370 -419 -968 -141
-1411 66 -105 183 -235 263 -292 72 -51 161 -107 170 -107 4 0 32 -11 62 -25
49 -22 113 -40 216 -61 69 -13 226 -16 280 -5 173 36 275 69 340 111 8 5 31
19 52 30 62 33 186 139 245 208 183 216 273 466 273 757 0 207 -38 366 -133
547 -116 224 -323 416 -528 488 -35 13 -68 27 -74 31 -17 12 -166 37 -250 42
-44 3 -116 1 -161 -3z m426 -695 c58 -30 95 -105 106 -212 l7 -73 -65 0 -65 0
-7 39 c-3 21 -14 49 -25 62 -16 20 -22 22 -44 12 -51 -23 -77 -120 -77 -280 0
-110 16 -153 55 -153 29 0 51 30 70 92 l12 43 63 3 62 3 -7 -48 c-8 -58 -44
-151 -77 -199 -60 -90 -191 -97 -261 -15 -47 56 -62 128 -62 291 0 123 4 156
23 220 61 195 171 276 292 215z m-720 -25 c0 -12 -16 -143 -35 -293 -19 -150
-40 -314 -47 -364 l-11 -93 -74 0 c-40 0 -73 1 -73 3 0 1 7 52 15 112 23 174
26 165 -43 165 l-58 0 -13 -102 c-6 -57 -15 -120 -18 -140 l-6 -38 -68 0 c-65
0 -69 1 -69 23 0 22 74 629 86 700 l6 37 67 0 c37 0 70 -2 73 -5 2 -3 -1 -42
-8 -87 -7 -46 -16 -100 -19 -120 l-5 -38 63 0 64 0 16 121 c9 66 19 125 22
130 4 5 35 9 71 9 58 0 64 -2 64 -20z m362 -325 c15 -187 27 -359 27 -382 l1
-43 -70 0 -70 0 0 45 0 45 -69 0 -68 0 -13 -45 -13 -45 -78 0 c-44 0 -79 4
-79 9 0 7 124 378 227 678 27 80 30 82 123 79 l55 -1 27 -340z m678 308 c0
-16 -7 -68 -15 -118 -8 -49 -15 -94 -15 -98 0 -4 28 -7 62 -5 l63 3 12 90 c7
50 15 105 18 123 l6 32 70 0 70 0 -7 -62 c-4 -35 -25 -205 -48 -378 l-41 -315
-72 -3 c-55 -2 -73 0 -73 10 0 7 7 58 15 113 23 162 25 155 -44 155 l-58 0 -6
-47 c-4 -27 -12 -90 -18 -140 l-12 -93 -72 0 -72 0 4 28 c68 550 84 672 88
700 l6 32 69 0 c70 0 70 0 70 -27z"/>
</g>
</svg>
