<?xml version="1.0" standalone="no"?>
<!DOCTYPE svg PUBLIC "-//W3C//DTD SVG 20010904//EN"
 "http://www.w3.org/TR/2001/REC-SVG-20010904/DTD/svg10.dtd">
<svg version="1.0" xmlns="http://www.w3.org/2000/svg"
 width="31.000000pt" height="32.000000pt" viewBox="0 0 31.000000 32.000000"
 preserveAspectRatio="xMidYMid meet">

<g transform="translate(0.000000,32.000000) scale(0.100000,-0.100000)"
fill="#000000" stroke="none">
<path d="M35 265 c-19 -20 -35 -43 -35 -53 1 -14 2 -14 12 3 6 11 24 35 41 53
42 43 27 41 -18 -3z"/>
<path d="M78 269 c-30 -22 -68 -79 -68 -100 0 -8 8 1 16 18 9 18 34 49 55 68
42 38 40 47 -3 14z"/>
<path d="M114 258 c-61 -41 -102 -109 -85 -141 9 -20 10 -19 6 8 -4 24 -4 26
4 10 5 -11 10 -14 10 -7 1 7 20 33 44 59 26 28 34 42 20 35 -12 -7 -33 -27
-47 -44 -14 -18 -26 -27 -26 -19 0 15 69 86 110 113 14 9 22 17 19 17 -4 1
-29 -14 -55 -31z"/>
<path d="M250 264 c0 -5 6 -19 14 -30 8 -10 13 -30 10 -44 l-4 -25 10 24 c8
19 6 30 -10 55 -11 17 -20 26 -20 20z"/>
<path d="M102 174 c-33 -26 -68 -81 -58 -92 3 -3 6 1 6 9 0 12 2 12 9 0 5 -8
7 -20 4 -28 -3 -8 24 7 61 32 36 26 66 49 66 51 0 6 -12 -1 -68 -39 -65 -43
-61 -26 5 28 32 26 60 52 62 57 2 6 -26 -13 -63 -42 -75 -59 -86 -56 -24 7 48
49 48 55 0 17z"/>
<path d="M245 169 c-4 -11 -29 -36 -56 -56 -55 -39 -63 -51 -20 -29 30 16 91
80 91 96 0 17 -8 11 -15 -11z"/>
<path d="M287 174 c-4 -12 -5 -28 -2 -37 8 -20 -18 -70 -50 -95 -31 -25 -33
-38 -2 -17 37 24 69 89 65 132 -3 31 -4 34 -11 17z"/>
<path d="M241 127 c-14 -16 -42 -42 -64 -58 -22 -16 -36 -29 -30 -29 17 0 88
56 107 84 24 38 16 40 -13 3z"/>
<path d="M0 116 c0 -28 34 -86 50 -86 4 0 7 11 6 24 0 13 -5 24 -9 23 -5 -1
-17 14 -28 33 l-19 35 0 -29z"/>
<path d="M242 90 c-18 -22 -29 -40 -24 -40 11 0 36 28 51 58 16 31 11 28 -27
-18z"/>
<path d="M110 29 c0 -5 5 -7 10 -4 6 3 10 8 10 11 0 2 -4 4 -10 4 -5 0 -10 -5
-10 -11z"/>
</g>
</svg>
